# xmcd CD database file
#
# Track frame offsets:
#	150
#	23822
#	48532
#	61682
#	85302
#
# Disc length: 1465 seconds
#
# Revision: 4
# Processed by: cddbd v1.5PL3 Copyright (c) Steve Scherf et al.
# Submitted via: CDex 1.50beta9
#
DISCID=3605b705
DTITLE=岡本 真夜 - ハピハピ バースディ - 愛おしい人よ〜remember me〜
DYEAR=1900
DGENRE=Pop
TTITLE0=ハピハピ バースディ
TTITLE1=愛おしい人よ〜remember me〜
TTITLE2=snow field
TTITLE3=ハピハピ バースディ(Instrumental)
TTITLE4=愛おしい人よ〜remember me〜(Instrumental)
EXTD=
EXTT0=
EXTT1=
EXTT2=
EXTT3=
EXTT4=
PLAYORDER=
